<svg width="337" height="342" viewBox="0 0 337 342" fill="none" xmlns="http://www.w3.org/2000/svg">
<path d="M130.189 29.5471L61.937 159.751" stroke="#FF9999"/>
<path d="M164.075 35.1489L95.8232 165.353" stroke="#FF9999"/>
<path d="M101.968 14.0134L33.7156 144.217" stroke="#FF9999"/>
<path d="M143.974 16.0835L75.7217 146.287" stroke="#FF9999"/>
<path d="M177.86 21.6853L109.608 151.889" stroke="#FF9999"/>
<path d="M115.752 0.549561L47.5002 130.753" stroke="#FF9999"/>
<path d="M132.198 50.1274L63.9458 180.331" stroke="#FF9999"/>
<path d="M166.084 55.7292L97.832 185.933" stroke="#FF9999"/>
<path d="M103.976 34.5935L35.7244 164.797" stroke="#FF9999"/>
<path d="M152.228 27.0835L83.9758 157.287" stroke="#FF9999"/>
<path d="M186.114 32.6853L117.862 162.889" stroke="#FF9999"/>
<path d="M124.006 11.5496L55.7542 141.753" stroke="#FF9999"/>
<path d="M143.974 58.3547L75.7217 188.558" stroke="#FF9999"/>
<path d="M177.86 63.9565L109.608 194.16" stroke="#FF9999"/>
<path d="M115.752 42.821L47.5002 173.025" stroke="#FF9999"/>
<path d="M97.7124 84.0811L29.4604 214.285" stroke="#FF9999"/>
<path d="M131.599 89.6829L63.3467 219.886" stroke="#FF9999"/>
<path d="M69.491 68.5474L1.23901 198.751" stroke="#FF9999"/>
<path d="M111.497 70.6174L43.2451 200.821" stroke="#FF9999"/>
<path d="M145.383 76.2192L77.1313 206.423" stroke="#FF9999"/>
<path d="M83.2756 55.0835L15.0237 185.287" stroke="#FF9999"/>
<path d="M99.7212 104.661L31.4692 234.865" stroke="#FF9999"/>
<path d="M133.607 110.263L65.3555 240.467" stroke="#FF9999"/>
<path d="M71.4998 89.1274L3.2478 219.331" stroke="#FF9999"/>
<path d="M119.751 81.6174L51.4993 211.821" stroke="#FF9999"/>
<path d="M153.637 87.2192L85.3853 217.423" stroke="#FF9999"/>
<path d="M91.5295 66.0835L23.2776 196.287" stroke="#FF9999"/>
<path d="M111.497 112.889L43.2451 243.092" stroke="#FF9999"/>
<path d="M145.383 118.49L77.1313 248.694" stroke="#FF9999"/>
<path d="M83.2756 97.355L15.0237 227.559" stroke="#FF9999"/>
<ellipse cx="203.368" cy="214.046" rx="133.33" ry="127.508" fill="#89BBFE"/>
</svg>
