<svg width="53" height="40" viewBox="0 0 53 40" fill="none" xmlns="http://www.w3.org/2000/svg">
<path d="M8.24446 25.8478C11.3316 25.3158 13.3219 22.0607 12.69 18.5772C12.058 15.0937 9.04312 12.7009 5.95598 13.2329C2.86884 13.7648 0.878505 17.02 1.51045 20.5035C2.1424 23.987 5.15732 26.3797 8.24446 25.8478Z" fill="#FAE3E9"/>
<path d="M12.3452 33.0782C12.3436 29.6806 15.3443 28.7968 17.7092 25.4079C20.2445 21.7749 22.2842 18.5136 26.3346 18.5117C30.385 18.5099 32.5166 21.7692 35.1477 25.3999C37.602 28.7866 40.6937 29.6675 40.6952 33.0652C40.7005 44.5047 34.1714 36.0934 26.3427 36.097C18.5141 36.1006 12.3504 44.5178 12.3452 33.0782Z" fill="#FAE3E9"/>
<path d="M21.1465 14.2626C23.9872 12.9702 25.0452 9.32395 23.5096 6.11856C21.974 2.91317 18.4264 1.36244 15.5857 2.6549C12.745 3.94737 11.687 7.5936 13.2226 10.799C14.7582 14.0044 18.3058 15.5551 21.1465 14.2626Z" fill="#FAE3E9"/>
<path d="M44.7891 25.8311C47.8767 26.3602 50.8895 23.9647 51.5182 20.4806C52.1469 16.9965 50.1536 13.7432 47.066 13.2141C43.9784 12.685 40.9656 15.0805 40.3369 18.5646C39.7082 22.0487 41.7015 25.302 44.7891 25.8311Z" fill="#FAE3E9"/>
<path d="M32.0857 14.2578C34.9276 15.5476 38.4739 13.9936 40.0065 10.7868C41.5392 7.58004 40.4778 3.93479 37.6359 2.64493C34.794 1.35508 31.2478 2.90907 29.7152 6.11587C28.1825 9.32267 29.2439 12.9679 32.0857 14.2578Z" fill="#FAE3E9"/>
</svg>
