<svg width="53" height="40" viewBox="0 0 53 40" fill="none" xmlns="http://www.w3.org/2000/svg">
<path d="M8.24446 25.8478C11.3316 25.3158 13.3219 22.0607 12.69 18.5772C12.058 15.0937 9.04312 12.7009 5.95598 13.2329C2.86884 13.7648 0.878505 17.02 1.51045 20.5035C2.1424 23.987 5.15732 26.3797 8.24446 25.8478Z" fill="#E9D7E3"/>
<path d="M12.3452 33.0781C12.3436 29.6805 15.3443 28.7967 17.7092 25.4078C20.2445 21.7748 22.2842 18.5135 26.3346 18.5116C30.385 18.5098 32.5166 21.7691 35.1477 25.3998C37.602 28.7865 40.6937 29.6674 40.6952 33.0651C40.7005 44.5046 34.1714 36.0933 26.3427 36.0969C18.5141 36.1005 12.3504 44.5177 12.3452 33.0781Z" fill="#E9D7E3"/>
<path d="M21.1465 14.2628C23.9872 12.9703 25.0452 9.32407 23.5096 6.11868C21.974 2.91329 18.4264 1.36256 15.5857 2.65502C12.745 3.94749 11.687 7.59372 13.2226 10.7991C14.7582 14.0045 18.3058 15.5552 21.1465 14.2628Z" fill="#E9D7E3"/>
<path d="M44.7891 25.831C47.8767 26.3601 50.8895 23.9646 51.5182 20.4805C52.1469 16.9964 50.1536 13.7431 47.066 13.214C43.9784 12.6849 40.9656 15.0804 40.3369 18.5645C39.7082 22.0485 41.7015 25.3019 44.7891 25.831Z" fill="#E9D7E3"/>
<path d="M32.0857 14.2578C34.9276 15.5476 38.4739 13.9936 40.0065 10.7868C41.5392 7.58004 40.4778 3.93479 37.6359 2.64493C34.794 1.35508 31.2478 2.90907 29.7152 6.11587C28.1825 9.32267 29.2439 12.9679 32.0857 14.2578Z" fill="#E9D7E3"/>
</svg>
