<svg width="879" height="239" viewBox="0 0 879 239" fill="none" xmlns="http://www.w3.org/2000/svg">
<path d="M333.169 95.821C310.188 45.879 271.918 28.8703 233.649 78.8335C191.786 78.8335 174.841 95.821 180.475 140.341C158.895 148.995 166.677 167.675 186.13 167.675C261.89 170.182 308.628 170.196 379.354 167.675C404.799 146.869 398.421 120.292 363.331 113.729C356.962 101.158 358.025 95.821 333.169 95.821Z" fill="white"/>
<path d="M841.1 72.4835C800.559 42.5617 780.125 86.223 784.735 92.8377C767.255 89.4341 763.207 96.0727 756.552 108.495C739.953 102.476 735.471 108.493 726.021 117.106C707.356 127.007 704.801 136.095 709.581 156.249H858.323C881.707 156.249 883.854 132.214 866.935 108.495C865.468 89.7711 861.318 80.5061 841.1 72.4835Z" fill="white"/>
<path d="M29.626 125.268C61.2495 101.929 77.1882 135.985 73.5924 141.145C87.2269 138.49 90.3841 143.668 95.5755 153.358C108.523 148.663 112.019 153.356 119.391 160.075C133.949 167.798 135.942 174.886 132.214 190.607H16.1919C-2.04774 190.607 -3.72235 171.86 9.47485 153.358C10.619 138.753 13.8558 131.526 29.626 125.268Z" fill="white"/>
<path d="M463.204 153.549C400.606 172.312 411.795 239.322 450.161 238.601C488.527 237.881 640.216 238.601 640.216 238.601C672.296 203.94 660.275 175.957 616.331 153.549C573.218 81.9045 488.929 108.333 463.204 153.549Z" fill="white"/>
<path d="M459.29 16.1733C462.016 16.1733 464.225 14.3116 464.225 12.015C464.225 9.71842 462.016 7.85669 459.29 7.85669C456.564 7.85669 454.354 9.71842 454.354 12.015C454.354 14.3116 456.564 16.1733 459.29 16.1733Z" fill="#E6E6E6"/>
<path d="M341.152 41.4526C343.878 41.4526 346.088 39.5909 346.088 37.2943C346.088 34.9977 343.878 33.136 341.152 33.136C338.426 33.136 336.216 34.9977 336.216 37.2943C336.216 39.5909 338.426 41.4526 341.152 41.4526Z" fill="#E6E6E6"/>
<path d="M649.757 24.0905C652.482 24.0905 654.692 22.2288 654.692 19.9322C654.692 17.6357 652.482 15.7739 649.757 15.7739C647.031 15.7739 644.821 17.6357 644.821 19.9322C644.821 22.2288 647.031 24.0905 649.757 24.0905Z" fill="#E6E6E6"/>
<path d="M635.459 89.1782C638.185 89.1782 640.394 87.3164 640.394 85.0199C640.394 82.7233 638.185 80.8616 635.459 80.8616C632.733 80.8616 630.523 82.7233 630.523 85.0199C630.523 87.3164 632.733 89.1782 635.459 89.1782Z" fill="#E6E6E6"/>
<path d="M438.333 100.246C441.059 100.246 443.269 98.3841 443.269 96.0875C443.269 93.7909 441.059 91.9292 438.333 91.9292C435.607 91.9292 433.397 93.7909 433.397 96.0875C433.397 98.3841 435.607 100.246 438.333 100.246Z" fill="#E6E6E6"/>
<path d="M536.955 48.8127L534.491 50.8745L532.044 48.7983L530.402 50.1729L532.848 52.2483L530.385 54.3101L532.016 55.6934L534.48 53.6324L536.926 55.7077L538.569 54.3332L536.122 52.2578L538.585 50.1968L536.955 48.8127Z" fill="#E6E6E6"/>
<path d="M408.762 0.961621L406.298 3.02344L403.851 0.947266L402.209 2.32181L404.656 4.39718L402.192 6.45902L403.823 7.84232L406.287 5.78131L408.733 7.85667L410.376 6.48213L407.929 4.40676L410.392 2.34573L408.762 0.961621Z" fill="#E6E6E6"/>
<path d="M344.457 89.1926L341.994 91.2544L339.546 89.1782L337.904 90.5528L340.351 92.6281L337.887 94.69L339.518 96.0733L341.982 94.0123L344.429 96.0876L346.072 94.7131L343.624 92.6377L346.088 90.5767L344.457 89.1926Z" fill="#E6E6E6"/>
<path d="M615.762 117.192L613.299 119.253L610.851 117.177L609.209 118.552L611.656 120.627L609.192 122.689L610.823 124.072L613.287 122.011L615.734 124.087L617.377 122.712L614.929 120.637L617.393 118.576L615.762 117.192Z" fill="#E6E6E6"/>
<path d="M718.153 78.1247L715.69 80.1865L713.243 78.1104L711.601 79.4849L714.047 81.5603L711.584 83.6221L713.214 85.0054L715.679 82.9444L718.125 85.0198L719.768 83.6452L717.321 81.5698L719.784 79.5088L718.153 78.1247Z" fill="#E6E6E6"/>
<path d="M674.909 146.259L672.445 148.321L669.998 146.245L668.356 147.62L670.802 149.695L668.339 151.757L669.969 153.14L672.434 151.079L674.88 153.155L676.523 151.78L674.076 149.705L676.539 147.644L674.909 146.259Z" fill="#E6E6E6"/>
<path opacity="0.8" d="M445.089 149.39L476.291 118.616L507.493 87.8412L525.107 70.4685C526.082 69.5073 524.578 68.0077 523.603 68.9689L492.401 99.7435L461.199 130.518L443.585 147.891C442.61 148.852 444.114 150.351 445.089 149.39V149.39Z" fill="url(#paint0_linear)"/>
<path opacity="0.8" d="M558.564 113.867L589.766 83.0921L620.968 52.3176L638.582 34.9449C639.557 33.9836 638.053 32.484 637.078 33.4452L605.876 64.2198L574.674 94.9943L557.06 112.367C556.085 113.328 557.589 114.828 558.564 113.867V113.867Z" fill="url(#paint1_linear)"/>
<path opacity="0.8" d="M362.935 105.584L394.137 74.8096L425.339 44.0351L442.953 26.6624C443.928 25.7012 442.424 24.2016 441.45 25.1628L410.247 55.9373L379.045 86.7118L361.431 104.085C360.456 105.046 361.96 106.545 362.935 105.584V105.584Z" fill="url(#paint2_linear)"/>
<defs>
<linearGradient id="paint0_linear" x1="443.269" y1="109.18" x2="525.423" y2="109.18" gradientUnits="userSpaceOnUse">
<stop stop-color="white"/>
<stop offset="1" stop-color="white" stop-opacity="0.3"/>
</linearGradient>
<linearGradient id="paint1_linear" x1="556.744" y1="73.6559" x2="638.898" y2="73.6559" gradientUnits="userSpaceOnUse">
<stop stop-color="white"/>
<stop offset="1" stop-color="white" stop-opacity="0.3"/>
</linearGradient>
<linearGradient id="paint2_linear" x1="361.115" y1="65.3735" x2="443.269" y2="65.3735" gradientUnits="userSpaceOnUse">
<stop stop-color="white"/>
<stop offset="1" stop-color="white" stop-opacity="0.3"/>
</linearGradient>
</defs>
</svg>
