<svg width="304" height="319" viewBox="0 0 304 319" fill="none" xmlns="http://www.w3.org/2000/svg">
<path d="M171.249 291.449L85.5463 245.499L158.851 170.632C240.874 -18.0068 349.875 166.131 269.351 121.795C202.617 160.635 284.734 275.885 171.249 291.449Z" fill="url(#paint0_linear)"/>
<path d="M33.781 128.29C33.781 128.29 -6.49554 211.53 5.88669 263.259C18.2689 314.987 66.7828 307.848 66.7828 307.848H101.533H130.173C130.173 307.848 178.866 313.634 187.492 270.441C196.118 227.248 155.313 129.33 155.313 129.33L94.5472 128.81L33.781 128.29Z" fill="#EBE9E9"/>
<path d="M0.895671 73.8199C-8.94305 93.2271 73.0046 296.154 73.0046 296.154L63.4391 318.923H70.5308H79.6776H88.8244L98.7578 296.154V185.434L103.908 296.154L110.163 314.012L130.397 308.655L125.983 296.154C125.983 296.154 190.277 97.0302 184.479 73.8199C178.681 50.6096 10.7344 54.4128 0.895671 73.8199Z" fill="url(#paint1_linear)"/>
<g filter="url(#filter0_f)">
<path d="M2.47852 74.7178C23.9656 102.454 31.1853 82.868 57.4115 102.55C83.6377 122.232 100.629 122.232 128.702 102.55C156.776 82.868 162.581 100.16 182.897 74.7178" stroke="#BABABA" stroke-linejoin="round"/>
</g>
<path d="M0.895996 73.82C73.5995 0.1145 113.734 3.90036 184.479 73.82H0.895996Z" fill="#EBE9E9"/>
<path d="M103.18 53.5309C97.3848 63.1511 98.6831 75.5995 106.08 81.3352C113.476 87.0708 124.17 83.9218 129.965 74.3016C135.76 64.6814 134.462 52.233 127.065 46.4973C119.669 40.7616 108.975 43.9107 103.18 53.5309Z" fill="#4CB5F0"/>
<path d="M105.822 81.7634C98.1425 75.8087 96.8932 63.0048 102.785 53.2245C108.676 43.4441 119.644 40.1142 127.323 46.069C135.002 52.0238 136.252 64.8276 130.36 74.608C124.469 84.3883 113.501 87.7182 105.822 81.7634Z" stroke="#020202" stroke-opacity="0.81"/>
<path d="M98.8711 67.6537C99.2275 76.877 105.702 84.0463 113.332 83.6668C120.962 83.2873 126.859 75.5027 126.502 66.2794C126.146 57.0561 119.672 49.8868 112.041 50.2663C104.411 50.6458 98.5148 58.4304 98.8711 67.6537Z" fill="#370E0E"/>
<path d="M87.9396 318.025H64.9917L72.9048 298.722H96.644L87.9396 318.025Z" fill="url(#paint2_linear)"/>
<path d="M71.409 53.5309C77.2041 63.1511 75.9058 75.5995 68.5093 81.3352C61.1127 87.0708 50.4188 83.9218 44.6237 74.3016C38.8287 64.6814 40.127 52.233 47.5235 46.4973C54.9201 40.7616 65.614 43.9107 71.409 53.5309Z" fill="#4CB5F0"/>
<path d="M68.7673 81.7634C76.4464 75.8087 77.6957 63.0048 71.8042 53.2245C65.9126 43.4441 54.9447 40.1142 47.2655 46.069C39.5864 52.0238 38.3371 64.8276 44.2286 74.608C50.1201 84.3883 61.0881 87.7182 68.7673 81.7634Z" stroke="#020202" stroke-opacity="0.81"/>
<path d="M75.7177 67.6535C75.3614 76.8768 68.8871 84.0461 61.2569 83.6666C53.6268 83.287 47.7303 75.5024 48.0867 66.2792C48.443 57.0559 54.9174 49.8866 62.5475 50.2661C70.1776 50.6456 76.0741 58.4302 75.7177 67.6535Z" fill="#370E0E"/>
<path d="M72.1138 73.395C84.2397 60.5709 87.5462 66.1835 97.4356 73.395L93.8692 91.7762L84.2397 79.8071L75.6802 91.7762L72.1138 73.395Z" fill="#898989"/>
<path d="M38.0874 0.199219L41.2526 38.8052L60.6397 28.0314L38.0874 0.199219Z" fill="url(#paint3_linear)"/>
<path d="M38.0874 0.199219L60.6397 28.0314L66.1788 24.8891L38.0874 0.199219Z" fill="url(#paint4_linear)"/>
<path d="M38.0874 0.199219L60.6397 28.0314L66.1788 24.8891L38.0874 0.199219Z" fill="url(#paint5_linear)"/>
<path d="M38.0874 0.199219L60.6397 28.0314L66.1788 24.8891L38.0874 0.199219Z" fill="url(#paint6_linear)"/>
<path d="M38.0874 0.199219L60.6397 28.0314L66.1788 24.8891L38.0874 0.199219Z" fill="url(#paint7_linear)"/>
<path d="M146.893 1.09705L143.728 39.703L124.341 28.9293L146.893 1.09705Z" fill="url(#paint8_linear)"/>
<path d="M146.893 1.09705L124.341 28.9293L118.802 25.7869L146.893 1.09705Z" fill="url(#paint9_linear)"/>
<path d="M146.893 1.09705L124.341 28.9293L118.802 25.7869L146.893 1.09705Z" fill="url(#paint10_linear)"/>
<path d="M146.893 1.09705L124.341 28.9293L118.802 25.7869L146.893 1.09705Z" fill="url(#paint11_linear)"/>
<path d="M146.893 1.09705L124.341 28.9293L118.802 25.7869L146.893 1.09705Z" fill="url(#paint12_linear)"/>
<path d="M38.0874 0.199219L60.6397 28.0314L66.1788 24.8891L38.0874 0.199219Z" fill="#838383"/>
<path d="M146.893 1.09705L124.341 28.9293L118.802 25.7869L146.893 1.09705Z" fill="#838383"/>
<path d="M79.7676 68.7949C77.4544 71.0836 83.4301 77.4112 83.4301 77.4112C83.4301 77.4112 91.1406 70.6372 89.213 68.7949C87.2853 66.9526 85.6328 72.7466 83.4301 72.6991C81.3158 72.6535 80.9005 67.674 79.7676 68.7949Z" fill="#662540"/>
<path d="M125.923 295.58L105.349 297.824L110.492 313.087L130.275 308.149L125.923 295.58Z" fill="url(#paint13_linear)" fill-opacity="0.8"/>
<path d="M104.953 298.273L110.097 313.536L130.275 308.598L125.923 296.029" stroke="#D3D3D3"/>
<path d="M117.615 311.74L114.054 302.313" stroke="#D3D3D3"/>
<path d="M124.736 309.945L120.384 299.62" stroke="#D3D3D3"/>
<g filter="url(#filter1_if)">
<path d="M75.9693 70.954C76.1893 74.1674 75.9934 91.1572 61.1791 92.4629C46.3649 93.7687 42.2643 76.1355 42.0443 72.9222C41.8243 69.7089 46.3243 86.7568 61.1386 85.451C75.9528 84.1453 75.7492 67.7407 75.9693 70.954Z" fill="#717171" fill-opacity="0.73"/>
</g>
<g filter="url(#filter2_if)">
<path d="M98.811 69.8462C98.591 73.0595 98.7868 90.0493 113.601 91.3551C128.415 92.6609 132.516 75.0277 132.736 71.8144C132.956 68.601 128.456 85.649 113.642 84.3432C98.8274 83.0374 99.031 66.6329 98.811 69.8462Z" fill="#717171" fill-opacity="0.73"/>
</g>
<path d="M68.5823 307.851L64.2754 318.279H72.6989M92.6633 308.804L88.4877 318.279H80.5933M72.6989 318.279L76.6278 307.851M72.6989 318.279H80.5933M80.5933 318.279L84.4856 308.804" stroke="#D2D2D2" stroke-width="1.2"/>
<defs>
<filter id="filter0_f" x="1.08301" y="73.4058" width="183.204" height="45.4057" filterUnits="userSpaceOnUse" color-interpolation-filters="sRGB">
<feFlood flood-opacity="0" result="BackgroundImageFix"/>
<feBlend mode="normal" in="SourceGraphic" in2="BackgroundImageFix" result="shape"/>
<feGaussianBlur stdDeviation="0.5" result="effect1_foregroundBlur"/>
</filter>
<filter id="filter1_if" x="34.0366" y="62.5378" width="49.9719" height="37.9941" filterUnits="userSpaceOnUse" color-interpolation-filters="sRGB">
<feFlood flood-opacity="0" result="BackgroundImageFix"/>
<feBlend mode="normal" in="SourceGraphic" in2="BackgroundImageFix" result="shape"/>
<feColorMatrix in="SourceAlpha" type="matrix" values="0 0 0 0 0 0 0 0 0 0 0 0 0 0 0 0 0 0 127 0" result="hardAlpha"/>
<feOffset dy="4"/>
<feGaussianBlur stdDeviation="2"/>
<feComposite in2="hardAlpha" operator="arithmetic" k2="-1" k3="1"/>
<feColorMatrix type="matrix" values="0 0 0 0 0 0 0 0 0 0 0 0 0 0 0 0 0 0 0.25 0"/>
<feBlend mode="normal" in2="shape" result="effect1_innerShadow"/>
<feGaussianBlur stdDeviation="4" result="effect2_foregroundBlur"/>
</filter>
<filter id="filter2_if" x="90.7715" y="61.4299" width="49.9719" height="37.9941" filterUnits="userSpaceOnUse" color-interpolation-filters="sRGB">
<feFlood flood-opacity="0" result="BackgroundImageFix"/>
<feBlend mode="normal" in="SourceGraphic" in2="BackgroundImageFix" result="shape"/>
<feColorMatrix in="SourceAlpha" type="matrix" values="0 0 0 0 0 0 0 0 0 0 0 0 0 0 0 0 0 0 127 0" result="hardAlpha"/>
<feOffset dy="4"/>
<feGaussianBlur stdDeviation="2"/>
<feComposite in2="hardAlpha" operator="arithmetic" k2="-1" k3="1"/>
<feColorMatrix type="matrix" values="0 0 0 0 0 0 0 0 0 0 0 0 0 0 0 0 0 0 0.25 0"/>
<feBlend mode="normal" in2="shape" result="effect1_innerShadow"/>
<feGaussianBlur stdDeviation="4" result="effect2_foregroundBlur"/>
</filter>
<linearGradient id="paint0_linear" x1="224.223" y1="71.9164" x2="150.285" y2="269.7" gradientUnits="userSpaceOnUse">
<stop stop-color="#CCCCCC"/>
<stop offset="0.375" stop-color="#E2E1E1"/>
<stop offset="0.723958" stop-color="#EBE9E9"/>
</linearGradient>
<linearGradient id="paint1_linear" x1="92.688" y1="73.8198" x2="92.688" y2="318.922" gradientUnits="userSpaceOnUse">
<stop offset="0.208333" stop-color="#EBE9E9"/>
<stop offset="0.421875" stop-color="#E4E3E3"/>
<stop offset="1" stop-color="#D1D1D1"/>
</linearGradient>
<linearGradient id="paint2_linear" x1="80.8179" y1="298.722" x2="80.8179" y2="318.025" gradientUnits="userSpaceOnUse">
<stop stop-color="#D5D5D5"/>
<stop offset="0.53125" stop-color="white"/>
</linearGradient>
<linearGradient id="paint3_linear" x1="52.1331" y1="0.199219" x2="52.1331" y2="38.8052" gradientUnits="userSpaceOnUse">
<stop stop-color="#E2E1E1"/>
<stop offset="1" stop-color="#E2E1E1" stop-opacity="0"/>
</linearGradient>
<linearGradient id="paint4_linear" x1="52.1331" y1="0.199219" x2="52.1331" y2="38.8052" gradientUnits="userSpaceOnUse">
<stop stop-color="#E2E1E1"/>
<stop offset="1" stop-color="#E2E1E1" stop-opacity="0"/>
</linearGradient>
<linearGradient id="paint5_linear" x1="52.1331" y1="0.199219" x2="52.1331" y2="38.8052" gradientUnits="userSpaceOnUse">
<stop stop-color="#E2E1E1"/>
<stop offset="1" stop-color="#E2E1E1" stop-opacity="0"/>
</linearGradient>
<linearGradient id="paint6_linear" x1="52.1331" y1="0.199219" x2="52.1331" y2="38.8052" gradientUnits="userSpaceOnUse">
<stop stop-color="#E2E1E1"/>
<stop offset="1" stop-color="#E2E1E1" stop-opacity="0"/>
</linearGradient>
<linearGradient id="paint7_linear" x1="52.1331" y1="0.199219" x2="52.1331" y2="38.8052" gradientUnits="userSpaceOnUse">
<stop stop-color="#E2E1E1"/>
<stop offset="1" stop-color="#E2E1E1" stop-opacity="0"/>
</linearGradient>
<linearGradient id="paint8_linear" x1="132.847" y1="1.09705" x2="132.847" y2="39.703" gradientUnits="userSpaceOnUse">
<stop stop-color="#E2E1E1"/>
<stop offset="1" stop-color="#E2E1E1" stop-opacity="0"/>
</linearGradient>
<linearGradient id="paint9_linear" x1="132.847" y1="1.09705" x2="132.847" y2="39.703" gradientUnits="userSpaceOnUse">
<stop stop-color="#E2E1E1"/>
<stop offset="1" stop-color="#E2E1E1" stop-opacity="0"/>
</linearGradient>
<linearGradient id="paint10_linear" x1="132.847" y1="1.09705" x2="132.847" y2="39.703" gradientUnits="userSpaceOnUse">
<stop stop-color="#E2E1E1"/>
<stop offset="1" stop-color="#E2E1E1" stop-opacity="0"/>
</linearGradient>
<linearGradient id="paint11_linear" x1="132.847" y1="1.09705" x2="132.847" y2="39.703" gradientUnits="userSpaceOnUse">
<stop stop-color="#E2E1E1"/>
<stop offset="1" stop-color="#E2E1E1" stop-opacity="0"/>
</linearGradient>
<linearGradient id="paint12_linear" x1="132.847" y1="1.09705" x2="132.847" y2="39.703" gradientUnits="userSpaceOnUse">
<stop stop-color="#E2E1E1"/>
<stop offset="1" stop-color="#E2E1E1" stop-opacity="0"/>
</linearGradient>
<linearGradient id="paint13_linear" x1="117.812" y1="295.58" x2="117.812" y2="313.087" gradientUnits="userSpaceOnUse">
<stop stop-color="#D5D5D5" stop-opacity="0.15"/>
<stop offset="0.395833" stop-color="white"/>
</linearGradient>
</defs>
</svg>
