<svg width="1053" height="628" viewBox="0 0 1053 628" fill="none" xmlns="http://www.w3.org/2000/svg">
<path d="M17.0134 106.993C11.5454 113.912 9.33784 122.179 4.07446 129.506C2.35805 132.981 4.06365 137.712 2.05276 141.376C0.0416547 145.04 0.0310516 150.762 0.0310516 154.883V171.665C0.0310516 180.083 1.64842 188.283 1.64842 196.634C1.64842 205.88 5.35402 214.239 6.54543 223.285C7.57 231.063 10.3341 239.748 12.7903 247.207C14.5719 252.618 14.0438 257.693 14.6323 263.352C15.4968 271.666 15.396 280.047 15.396 288.502C15.396 300.616 12.1613 312.539 12.1613 324.75C12.1613 333.953 9.16722 342.341 8.92655 351.355C8.59718 363.692 7.85791 374.23 10.5439 386.466C11.4272 390.489 13.3622 393.578 14.9467 397.244C17.0712 402.16 17.9319 408.127 19.4394 413.299C23.2911 426.512 21.8655 440.78 21.8655 454.503C21.8655 470.522 21.9705 486.356 23.5278 502.12C24.1559 508.479 26.5086 516.383 28.7393 522.404C30.3254 526.686 32.8619 531.578 33.187 536.184C33.4263 539.575 34.7635 543.197 36.242 546.19C37.8874 549.521 38.1765 552.974 39.2971 556.377C42.1566 565.062 43.9757 574.685 47.7433 583.029C51.4491 591.235 52.7878 599.867 58.6605 607.133C62.241 611.563 71.2787 615.363 76.8558 616.774C85.9392 619.073 94.9326 621.14 103.947 623.505C108.68 624.748 114.951 627.235 119.761 627.235H131.038C137.863 627.235 145.301 625.465 152.063 624.324C161.562 622.721 171.191 621.371 180.727 620.049C193.197 618.32 205.596 617.216 218.061 615.774C230.462 614.339 241.812 612.499 254.406 612.499C265.183 612.499 275.746 612.655 286.304 614.182C294.931 615.43 302.793 619.481 311.553 619.867C330.41 620.697 351.12 623.059 369.868 619.685C380.791 617.719 391.191 613.993 401.946 611.271C413.357 608.383 424.209 606.954 435.911 605.132C467.342 600.237 499.922 604.127 531.29 598.173C548.619 594.884 566.335 594.078 583.63 591.033C594.555 589.109 606.443 590.396 617.55 590.396H661.533C675.474 590.396 689.24 588.759 703.135 588.759C709.977 588.759 716.65 587.94 723.487 587.94C731.411 587.94 738.66 585.42 746.355 584.029C758.28 581.873 772.654 578.379 783.195 571.977C790.977 567.25 800.862 565.64 808.533 560.925C813.893 557.632 823.382 555.955 829.739 555.24C838.847 554.216 848.019 554.376 857.234 554.376C868.254 554.376 878.987 557.651 889.941 557.651C897.803 557.651 905.464 556.304 913.213 556.014C921.002 555.722 928.465 550.705 936.125 549.465C946.322 547.813 956.391 543.979 966.586 541.915C975.133 540.184 983.163 537.77 991.475 535.366C1001.03 532.604 1010.16 527.07 1019.78 524.906C1027.24 523.228 1034.76 520.439 1040.8 515.719C1045.61 511.965 1050.33 504.486 1051.27 498.3C1052.03 493.349 1053.6 485.496 1051.5 480.699C1050.72 478.927 1051.09 476.808 1050.33 474.969C1049.06 471.925 1048.7 468.711 1047.68 465.6C1045.52 459.031 1046.47 450.961 1046.47 444.043V444.036C1046.47 429.552 1046.47 414.8 1044.89 400.473C1044.02 392.494 1044.68 383.757 1043.05 375.914C1041.52 368.564 1042.6 360.159 1040.4 353.038C1039.51 350.154 1039.19 345.397 1039.19 342.396C1039.19 339.544 1037.67 336.722 1037.57 333.982C1037.45 330.725 1036.88 327.742 1036.76 324.522L1036.76 324.439C1036.66 321.727 1036.5 317.337 1035.55 314.835C1033.11 308.407 1034.85 300.712 1033.35 294.051C1031.93 287.797 1032.72 280.819 1032.72 274.404C1032.72 269.394 1032.14 263.437 1034.16 258.85C1035.98 254.686 1034.8 248.693 1036.13 244.296C1037.52 239.73 1036.76 234.18 1036.76 229.379C1036.76 223.13 1035.2 214.675 1036.94 208.731C1038.67 202.81 1037.57 195.453 1037.57 189.266C1037.57 183.574 1036.3 179.576 1034.51 174.349C1031.24 164.764 1026.8 154.293 1026.25 144.241C1025.79 135.921 1023.46 127.807 1023.01 119.682C1022.54 111.111 1019.78 102.989 1019.78 94.3044C1019.78 90.5177 1018.94 85.3629 1018.12 81.6156C1017.16 77.2479 1016.92 72.2394 1015.11 68.1082C1013.18 63.7144 1013.24 58.172 1011.29 53.8276C1009.63 50.1393 1011.08 45.6279 1009.45 41.9119C1008.44 39.6264 1008.74 36.8596 1007.47 34.5442C1006.32 32.4592 1004.78 30.5254 1003.61 28.4499C1001.75 25.167 997.953 23.8452 995.114 21.8554C987.715 16.6696 978.506 16.0661 970.449 12.4411C964.496 9.76248 955.967 10.196 949.828 11.577C943.146 13.0802 934.654 11.6225 927.769 11.6225C919.543 11.6225 911.123 9.98522 902.924 9.98522C873.691 9.98522 846.044 0.161621 816.8 0.161621C801.217 0.161621 784.684 2.32197 769.447 6.07397C751.897 10.3953 734.795 19.6276 716.523 20.6275C709.463 21.0138 702.469 23.1633 695.498 23.9475C685.426 25.0803 675.133 27.3076 665.127 28.9957C647.112 32.0352 628.712 33.939 610.631 36.227C604.494 37.0035 598.934 39.3106 592.615 39.456C579.593 39.7556 566.583 40.2747 553.574 40.2747C541.715 40.2747 530.043 42.4703 518.216 42.7305C511.127 42.8866 504.014 42.7305 496.921 42.7305C490.007 42.7305 483.428 41.0933 476.524 41.0933H458.104C446.071 41.0933 434.582 43.5492 422.612 43.5492C403.122 43.5492 383.829 45.1864 364.342 45.1864C347.136 45.1864 330.108 44.3678 312.946 44.3678C298.763 44.3678 281.097 42.8734 268.064 48.8703C257.177 53.8798 245.864 55.8373 234.369 59.2851C226.44 61.6633 217.662 61.9556 209.525 64.015C203.529 65.5325 196.869 67.6087 190.7 68.1082C179.219 69.038 168.02 72.2013 156.107 72.2013C153.542 72.2013 151.383 72.8763 148.829 73.02C145.546 73.2046 141.695 73.504 138.316 73.8841C133.212 74.4581 128.084 75.4759 122.951 75.4759C112.275 75.4759 101.984 76.2945 91.4121 76.2945C80.9315 76.2945 71.0548 79.828 61.0865 82.0704C57.4639 82.8854 52.5641 85.1334 49.3606 86.7548C46.6749 88.1142 39.7463 90.0976 38.0391 92.2579C36.2072 94.5759 30.205 96.3253 27.5262 97.7609C23.814 99.7504 19.5377 103.799 17.0134 106.993Z" fill="white"/>
</svg>
