<svg width="7198" height="652" viewBox="0 0 7198 652" fill="none" xmlns="http://www.w3.org/2000/svg">
<path d="M3.07593 2.86646C3.07593 2.86646 220.027 300.864 356.64 191.808C792.515 -156.144 1512.16 404.807 1316.31 148.804C1120.47 -107.199 1686.49 354.486 1878.79 181.957C2071.08 9.42767 3062.28 343.929 2671.34 370.66C2280.4 397.391 3184.39 -187.797 3559 122.293C4088.78 560.843 4503.82 408.138 4268.78 229.286C4033.73 50.4337 5404 178.405 5266.18 229.286C4663.14 451.917 5521.28 582.157 5889.11 582.157C6256.95 582.157 6398.86 453.351 6635.78 461.916C6883.84 470.884 6770.8 648.02 7197 648.02" stroke="#FFC774" stroke-width="7"/>
</svg>
